PathFileType	4	(X/Y/Z)	D:\TRACE\v60_Jaco2_6-2-23\BothDRS_Motion3_9-v60.trc
DataRate	CameraRate	NumFrames	NumMarkers	Units	OrigDataRate	OrigDataStartFrame	OrigNumFrames
100.00	100.00	      38	9	mm	100.00	3501	      7000
Frame#	Time	front left toe			Front right toe			aft left toe			aft right toe			Arm			FL body			FR body			AL Body			AR Body			
		X1	Y1	Z1	X2	Y2	Z2	X3	Y3	Z3	X4	Y4	Z4	X5	Y5	Z5	X6	Y6	Z6	X7	Y7	Z7	X8	Y8	Z8	X9	Y9	Z9	

3501	35.000	-53.42596	9.36367	-121.70275	303.51324	19.72867	-65.54860	-108.78107	20.21242	534.40143	278.41986	16.13055	523.12109	145.29303	1109.27234	-526.55798	49.81047	510.85333	-269.83969	208.50255	509.23962	-260.64694	3.28518	553.90930	672.74701	154.23756	543.11823	680.65356	
3502	35.010	-53.41506	9.16679	-121.75077	303.79007	16.66828	-67.13057	-108.79265	18.99537	534.54779	278.45660	16.71328	523.01135	144.27386	1109.31677	-525.69000	49.56136	510.54034	-268.79340	207.91806	509.06287	-259.90103	3.56694	554.26233	673.67914	154.39270	543.31555	681.35059	
3503	35.020	-53.47598	8.96353	-121.81001	304.32040	13.76931	-66.41422	-109.51707	19.37997	533.60132	278.34937	17.24373	522.86121	143.06940	1109.29370	-525.05469	48.47534	510.25171	-267.95676	206.94052	508.75577	-259.23575	3.80269	555.56207	674.48981	155.80298	544.61420	682.63025	
3504	35.030	-53.46993	9.04691	-121.63475	304.60577	13.91713	-67.83075	-109.44102	20.76846	533.81470	278.34161	17.62979	522.85614	142.06525	1109.41370	-524.85608	47.77874	510.35971	-266.79681	206.60899	508.89066	-258.11563	4.07121	557.04999	675.48975	155.19882	545.85529	682.84448	
3505	35.040	-53.09250	9.54911	-121.49179	304.58707	13.85764	-66.77495	-108.89205	20.67458	534.30719	278.42166	18.70424	522.87018	141.47346	1109.63135	-525.17749	46.81532	511.15637	-265.87943	204.92601	510.17841	-257.12073	4.64439	558.53027	676.81177	155.61758	547.41150	684.14600	
3506	35.050	-51.36610	14.24372	-121.66158	304.55939	12.71667	-66.71944	-107.96915	19.78578	534.17957	277.76996	21.55338	523.08386	140.64218	1109.41846	-525.27808	46.40306	512.45868	-265.14542	204.58302	510.96957	-256.36728	5.07412	559.17047	677.73633	157.30649	546.92822	684.02435	
3507	35.060	-48.54367	18.34994	-118.32755	304.48187	13.46963	-67.41855	-108.69753	20.26821	534.11737	274.24527	24.81426	526.10065	139.85190	1108.95459	-524.77466	45.87986	513.46057	-264.05777	204.29146	511.93231	-255.66791	5.40914	559.78430	678.28894	157.67105	547.91449	685.40521	
3508	35.070	-46.55770	20.45201	-113.97064	304.56622	12.79953	-67.55057	-108.62950	20.40550	533.97308	269.38547	30.12395	528.19006	138.56328	1109.26978	-523.91864	45.32638	513.79041	-263.58539	203.47511	512.59271	-255.22615	5.61861	560.32733	679.35376	157.58659	548.65601	685.84930	
3509	35.080	-45.98405	29.78871	-113.50322	304.63568	12.16829	-67.62450	-108.28738	20.99373	534.30975	266.41385	39.03781	528.44537	136.57808	1110.57043	-523.18958	45.11001	513.43079	-263.16769	203.03909	512.57159	-254.59108	5.15410	560.63586	679.77539	157.50459	549.22437	686.50842	
3510	35.090	-47.32870	41.01914	-113.53774	304.77652	12.07992	-67.71612	-108.29550	21.36073	534.27344	265.08206	49.41194	528.82672	135.31551	1111.81897	-522.23853	45.04710	512.75458	-261.81824	202.85823	511.89441	-253.75984	4.85898	561.35895	680.34399	157.58936	549.29950	686.49646	
3511	35.100	-47.90131	50.03017	-111.94932	304.74777	11.93539	-67.62814	-108.33718	21.58118	534.37476	266.12134	60.44178	529.23688	133.97569	1112.38501	-521.25604	44.72657	512.42365	-261.34747	203.32759	511.39117	-253.41850	4.54649	561.39941	681.03113	156.53426	550.03058	687.99792	
3512	35.110	-50.44677	62.33727	-111.67651	304.88043	11.92896	-67.59039	-108.77365	21.92880	533.98016	267.79065	71.86546	530.42914	133.37354	1112.12000	-520.33020	44.35784	512.23108	-260.88907	202.98639	511.30722	-252.78830	3.82773	561.21912	681.81512	156.34509	549.47565	687.92853	
3513	35.120	-52.68784	73.78400	-109.96593	305.04291	11.74830	-67.74335	-108.58987	21.76832	534.17407	269.53143	83.09212	532.57800	133.70514	1111.23486	-519.95563	44.39557	511.71548	-260.14053	202.47678	510.98737	-251.64638	3.14022	560.65442	682.23010	152.84126	549.81030	689.72131	
3514	35.130	-54.65892	83.47579	-107.38265	305.11691	11.71370	-67.80387	-108.17097	21.61085	533.98932	269.65924	94.05665	534.54590	134.40486	1110.08826	-519.68262	44.26188	511.22571	-259.59900	202.05762	510.92068	-251.08284	2.08423	560.27643	682.99628	153.15904	549.61481	690.34808	
3515	35.140	-56.46126	93.32966	-104.72221	305.12866	11.60467	-67.95601	-108.05154	21.88963	534.01062	269.31940	104.36948	537.09290	134.74925	1108.98694	-519.69867	43.77058	510.70578	-258.80878	202.02400	510.38382	-250.17024	1.85130	560.11591	683.71191	152.77548	549.62823	690.89282	
3516	35.150	-58.65308	103.52118	-102.05466	305.20383	11.61595	-67.89828	-108.10943	22.24128	533.86841	267.61691	114.13878	539.68604	135.06537	1107.65503	-519.49152	43.32864	510.35095	-258.11969	201.60974	509.92758	-249.41151	0.76208	560.23767	684.24451	151.77179	549.75085	691.59680	
3517	35.160	-60.36069	112.54676	-99.25429	305.36606	11.48885	-67.83136	-108.23052	22.40796	533.75806	266.00555	123.20660	542.60065	134.72900	1106.52783	-519.28918	43.28812	509.57883	-257.50034	201.80824	508.90598	-248.75786	0.03526	560.55536	684.92767	151.08582	549.92731	692.28894	
3518	35.170	-62.65316	120.45654	-96.51372	305.26935	11.37743	-67.70959	-108.33050	22.56907	533.76050	263.49600	131.49069	545.51575	134.31502	1105.60010	-519.13812	42.88313	508.57968	-256.65158	201.42012	508.36548	-248.03453	-0.76156	560.80347	685.49805	150.11673	550.63232	693.16199	
3519	35.180	-65.15730	126.91453	-93.68481	305.39957	11.26366	-67.74986	-108.36984	22.64564	533.75311	262.23645	138.57532	547.94135	133.56509	1104.74988	-518.99536	42.92806	507.67844	-255.60950	200.83841	507.38657	-246.79512	-1.84776	561.26215	686.17517	149.01379	551.16718	694.21680	
3520	35.190	-67.91844	132.43979	-91.47076	305.61340	11.09387	-67.61523	-108.86069	23.04086	533.78711	260.89542	144.41974	550.11371	132.97421	1103.94409	-518.86188	43.24315	506.84531	-254.54854	201.41426	506.56509	-245.98108	-2.82165	561.95593	686.82819	148.02287	551.79590	694.88391	
3521	35.200	-71.02084	136.12375	-89.40292	305.84662	11.19717	-67.47015	-108.87459	23.25022	533.80383	260.28308	148.38622	552.81897	132.84503	1102.88989	-518.76080	42.42407	506.65942	-254.41394	200.14847	506.47461	-245.28856	-3.81263	562.85437	687.72357	146.53099	552.67664	695.50403	
3522	35.210	-73.48571	137.46126	-87.07407	305.62357	11.19572	-67.41149	-108.97778	23.60666	533.69006	258.53714	149.04408	555.84668	132.96356	1101.90369	-518.78882	41.77373	506.34879	-253.70107	199.99780	505.91666	-244.13513	-5.31067	563.53027	688.01111	143.93936	553.01068	696.40417	
3523	35.220	-75.96877	135.21941	-84.12115	305.72388	11.22495	-67.33490	-109.02903	23.91361	533.54761	256.84229	147.07091	559.12164	133.35770	1100.88037	-518.96698	42.14843	505.65445	-252.54077	199.92490	505.59412	-243.20618	-6.31856	563.97998	688.73138	142.75050	553.76727	697.10419	
3524	35.230	-77.92478	130.51187	-81.10116	305.54340	11.22522	-67.41855	-109.07394	24.05803	533.56769	254.58035	143.45152	562.06067	133.64153	1100.28564	-519.04333	41.06995	505.52029	-252.43372	199.10085	505.40201	-242.48268	-7.93363	564.58331	689.24536	141.44810	554.33392	697.78564	
3525	35.240	-79.97448	125.72241	-78.77794	305.79434	11.36999	-67.27445	-108.97339	24.31141	533.61353	252.11066	138.98314	565.15973	133.73474	1099.51709	-518.80115	40.77244	505.21094	-251.46330	198.65541	505.08762	-241.68950	-8.98581	565.15753	689.98230	140.65121	555.26300	698.38574	
3526	35.250	-82.13314	120.44225	-76.03014	305.85254	11.41162	-67.26183	-108.80508	24.62335	533.58643	249.67392	133.53883	567.94940	133.54399	1099.23730	-518.38538	40.58454	504.90857	-250.88051	198.26668	504.94278	-241.11095	-10.17872	565.76630	690.48480	140.63087	555.85712	699.48157	
3527	35.260	-84.42800	114.41270	-73.84529	305.98093	11.51560	-67.10915	-108.78845	24.92210	533.50708	247.07535	127.37378	570.65295	132.99890	1099.29553	-518.13904	40.04805	504.88657	-250.58078	197.91411	504.81686	-240.37434	-11.79911	566.35840	690.83673	139.12660	556.41724	699.90186	
3528	35.270	-86.66629	108.14233	-71.80992	306.07364	11.53826	-67.02407	-108.82071	24.99157	533.32880	244.48410	120.19437	572.77545	132.20808	1099.23120	-517.87244	39.71893	504.49820	-249.91844	197.63835	504.56415	-239.62936	-13.06700	566.57526	691.10211	137.81984	556.82941	700.42657	
3529	35.280	-89.40390	101.58675	-70.33617	305.89212	11.45289	-66.96992	-108.96990	25.03529	533.24390	241.37268	112.68115	574.77850	131.50917	1098.99109	-517.56244	39.62426	504.09485	-249.36511	197.92720	504.22354	-239.16780	-14.65245	566.75763	691.40985	135.43474	557.16931	700.97333	
3530	35.290	-91.75123	94.34983	-69.09576	305.78308	11.46161	-67.02176	-109.01161	24.90859	533.29297	238.19458	104.57325	576.25525	130.89398	1098.71472	-517.05292	38.84820	504.08356	-249.05588	196.74269	504.10132	-238.45175	-16.16878	566.90424	691.71863	134.19388	557.13043	701.94232	
3531	35.300	-94.27229	86.60815	-68.30754	305.85019	11.50923	-66.99166	-109.13695	24.99483	533.20343	234.71736	95.74581	577.83356	130.45522	1098.48083	-516.87006	38.25903	504.02573	-248.80568	196.28662	504.04620	-237.94714	-17.49598	567.03815	692.37628	133.25858	557.26978	702.24121	
3532	35.310	-96.76891	78.60213	-67.74429	305.85471	11.49871	-66.99947	-109.20636	25.19036	533.03210	231.48422	86.78846	579.25549	130.32825	1098.08533	-516.78668	38.07473	504.02005	-248.36839	195.39516	504.11951	-237.54909	-18.78023	566.98810	692.27155	131.59482	557.32544	702.20215	
3533	35.320	-99.23530	70.50877	-67.20171	305.97659	11.57666	-66.92294	-109.30839	25.37272	532.87775	228.46013	77.66908	580.03082	130.28854	1097.75989	-516.65961	36.98545	504.11737	-248.42818	195.17233	503.84796	-237.13512	-20.61258	567.22253	692.45435	130.34897	557.53479	702.42853	
3534	35.330	-101.51750	61.94078	-66.66978	305.74326	11.55964	-66.99684	-109.33569	25.39623	532.84674	225.78250	68.91580	580.16876	130.14665	1097.58081	-516.56122	36.30982	503.94016	-248.25714	194.31348	503.79178	-236.92958	-21.71395	567.53735	692.65247	128.99628	557.79779	703.20227	
3535	35.340	-103.69170	52.84858	-66.25962	305.74472	11.60310	-66.86151	-109.49856	25.35201	532.86444	223.75462	60.41259	579.32825	130.23824	1097.44421	-516.39215	35.86928	503.49716	-247.83125	193.45087	503.48883	-236.50543	-23.44938	567.32062	692.36334	127.05288	557.70465	703.31116	
3536	35.350	-105.96506	44.71371	-66.93618	305.74384	11.60670	-66.87334	-109.55847	25.35996	532.81219	222.36513	52.18462	578.19690	130.44313	1097.39063	-516.22260	34.70774	503.57513	-248.06357	193.56042	502.92542	-236.41541	-25.11138	567.63440	692.52728	125.24972	557.69940	703.11359	
3537	35.360	-107.84795	37.54437	-68.39932	305.72452	11.63278	-66.89158	-109.62922	25.47249	532.77014	220.42935	44.47584	576.65308	130.63899	1097.37317	-516.13110	33.99103	503.55106	-248.05911	191.79121	502.96320	-236.26320	-26.42469	567.66150	692.70349	123.62925	557.80420	703.20209	
3538	35.370	-109.48302	30.61342	-69.85442	305.65015	11.68009	-66.98822	-109.72945	25.50310	532.56274	218.71614	37.00346	574.88800	130.82936	1097.39026	-516.06097	32.85894	503.68695	-248.26962	191.09404	502.84128	-236.21071	-27.98369	567.95178	692.56165	121.70089	557.58789	703.13037	
